<mxfile host="app.diagrams.net" agent="Mozilla/5.0 (Macintosh; Intel Mac OS X 10_15_7) AppleWebKit/537.36 (KHTML, like Gecko) Chrome/134.0.0.0 Safari/537.36" version="26.2.8">
  <diagram name="Side-1" id="GmqKKlnNzwOJKyFPibYE">
    <mxGraphModel dx="612" dy="342" grid="0" gridSize="10" guides="1" tooltips="1" connect="1" arrows="1" fold="1" page="1" pageScale="1" pageWidth="1200" pageHeight="1600" math="0" shadow="0">
      <root>
        <mxCell id="0" />
        <mxCell id="1" parent="0" />
        <mxCell id="3EK2jb_Yd_wLkveHqz7A-48" value="" style="ellipse;whiteSpace=wrap;html=1;aspect=fixed;strokeWidth=0.3;" vertex="1" parent="1">
          <mxGeometry x="415" y="190" width="80" height="80" as="geometry" />
        </mxCell>
        <mxCell id="3EK2jb_Yd_wLkveHqz7A-47" value="0" style="ellipse;whiteSpace=wrap;html=1;aspect=fixed;strokeWidth=0.3;" vertex="1" parent="1">
          <mxGeometry x="375" y="75" width="80" height="80" as="geometry" />
        </mxCell>
        <mxCell id="3EK2jb_Yd_wLkveHqz7A-46" value="" style="ellipse;whiteSpace=wrap;html=1;aspect=fixed;strokeWidth=0.3;" vertex="1" parent="1">
          <mxGeometry x="315" y="165" width="80" height="80" as="geometry" />
        </mxCell>
        <mxCell id="3EK2jb_Yd_wLkveHqz7A-45" value="" style="ellipse;whiteSpace=wrap;html=1;aspect=fixed;strokeWidth=0.3;" vertex="1" parent="1">
          <mxGeometry x="327.5" y="263.75" width="42.5" height="42.5" as="geometry" />
        </mxCell>
        <mxCell id="3EK2jb_Yd_wLkveHqz7A-44" value="" style="ellipse;whiteSpace=wrap;html=1;aspect=fixed;strokeWidth=0.3;" vertex="1" parent="1">
          <mxGeometry x="220" y="195" width="80" height="80" as="geometry" />
        </mxCell>
        <mxCell id="3EK2jb_Yd_wLkveHqz7A-43" value="" style="ellipse;whiteSpace=wrap;html=1;aspect=fixed;strokeWidth=0.3;" vertex="1" parent="1">
          <mxGeometry x="200" y="75" width="80" height="80" as="geometry" />
        </mxCell>
        <mxCell id="3EK2jb_Yd_wLkveHqz7A-1" value="" style="ellipse;whiteSpace=wrap;html=1;aspect=fixed;" vertex="1" parent="1">
          <mxGeometry x="230" y="100" width="10" height="10" as="geometry" />
        </mxCell>
        <mxCell id="3EK2jb_Yd_wLkveHqz7A-2" value="" style="ellipse;whiteSpace=wrap;html=1;aspect=fixed;" vertex="1" parent="1">
          <mxGeometry x="210" y="110" width="10" height="10" as="geometry" />
        </mxCell>
        <mxCell id="3EK2jb_Yd_wLkveHqz7A-3" value="" style="ellipse;whiteSpace=wrap;html=1;aspect=fixed;" vertex="1" parent="1">
          <mxGeometry x="220" y="110" width="10" height="10" as="geometry" />
        </mxCell>
        <mxCell id="3EK2jb_Yd_wLkveHqz7A-4" value="" style="ellipse;whiteSpace=wrap;html=1;aspect=fixed;fillColor=#f8cecc;strokeColor=#b85450;" vertex="1" parent="1">
          <mxGeometry x="220" y="130" width="10" height="10" as="geometry" />
        </mxCell>
        <mxCell id="3EK2jb_Yd_wLkveHqz7A-5" value="" style="ellipse;whiteSpace=wrap;html=1;aspect=fixed;" vertex="1" parent="1">
          <mxGeometry x="260" y="100" width="10" height="10" as="geometry" />
        </mxCell>
        <mxCell id="3EK2jb_Yd_wLkveHqz7A-6" value="" style="ellipse;whiteSpace=wrap;html=1;aspect=fixed;" vertex="1" parent="1">
          <mxGeometry x="240" y="120" width="10" height="10" as="geometry" />
        </mxCell>
        <mxCell id="3EK2jb_Yd_wLkveHqz7A-7" value="" style="ellipse;whiteSpace=wrap;html=1;aspect=fixed;fillColor=#f8cecc;strokeColor=#b85450;" vertex="1" parent="1">
          <mxGeometry x="410" y="110" width="10" height="10" as="geometry" />
        </mxCell>
        <mxCell id="3EK2jb_Yd_wLkveHqz7A-8" value="" style="ellipse;whiteSpace=wrap;html=1;aspect=fixed;" vertex="1" parent="1">
          <mxGeometry x="430" y="110" width="10" height="10" as="geometry" />
        </mxCell>
        <mxCell id="3EK2jb_Yd_wLkveHqz7A-9" value="" style="ellipse;whiteSpace=wrap;html=1;aspect=fixed;" vertex="1" parent="1">
          <mxGeometry x="420" y="130" width="10" height="10" as="geometry" />
        </mxCell>
        <mxCell id="3EK2jb_Yd_wLkveHqz7A-10" value="" style="ellipse;whiteSpace=wrap;html=1;aspect=fixed;" vertex="1" parent="1">
          <mxGeometry x="390" y="120" width="10" height="10" as="geometry" />
        </mxCell>
        <mxCell id="3EK2jb_Yd_wLkveHqz7A-11" value="" style="ellipse;whiteSpace=wrap;html=1;aspect=fixed;" vertex="1" parent="1">
          <mxGeometry x="400" y="90" width="10" height="10" as="geometry" />
        </mxCell>
        <mxCell id="3EK2jb_Yd_wLkveHqz7A-12" value="" style="ellipse;whiteSpace=wrap;html=1;aspect=fixed;" vertex="1" parent="1">
          <mxGeometry x="400" y="130" width="10" height="10" as="geometry" />
        </mxCell>
        <mxCell id="3EK2jb_Yd_wLkveHqz7A-13" value="" style="ellipse;whiteSpace=wrap;html=1;aspect=fixed;" vertex="1" parent="1">
          <mxGeometry x="420" y="90" width="10" height="10" as="geometry" />
        </mxCell>
        <mxCell id="3EK2jb_Yd_wLkveHqz7A-14" value="" style="ellipse;whiteSpace=wrap;html=1;aspect=fixed;" vertex="1" parent="1">
          <mxGeometry x="250" y="230" width="10" height="10" as="geometry" />
        </mxCell>
        <mxCell id="3EK2jb_Yd_wLkveHqz7A-15" value="" style="ellipse;whiteSpace=wrap;html=1;aspect=fixed;fillColor=#f8cecc;strokeColor=#b85450;" vertex="1" parent="1">
          <mxGeometry x="270" y="220" width="10" height="10" as="geometry" />
        </mxCell>
        <mxCell id="3EK2jb_Yd_wLkveHqz7A-16" value="" style="ellipse;whiteSpace=wrap;html=1;aspect=fixed;" vertex="1" parent="1">
          <mxGeometry x="270" y="240" width="10" height="10" as="geometry" />
        </mxCell>
        <mxCell id="3EK2jb_Yd_wLkveHqz7A-17" value="" style="ellipse;whiteSpace=wrap;html=1;aspect=fixed;" vertex="1" parent="1">
          <mxGeometry x="250" y="210" width="10" height="10" as="geometry" />
        </mxCell>
        <mxCell id="3EK2jb_Yd_wLkveHqz7A-18" value="" style="ellipse;whiteSpace=wrap;html=1;aspect=fixed;" vertex="1" parent="1">
          <mxGeometry x="230" y="220" width="10" height="10" as="geometry" />
        </mxCell>
        <mxCell id="3EK2jb_Yd_wLkveHqz7A-19" value="" style="ellipse;whiteSpace=wrap;html=1;aspect=fixed;" vertex="1" parent="1">
          <mxGeometry x="260" y="240" width="10" height="10" as="geometry" />
        </mxCell>
        <mxCell id="3EK2jb_Yd_wLkveHqz7A-20" value="" style="ellipse;whiteSpace=wrap;html=1;aspect=fixed;" vertex="1" parent="1">
          <mxGeometry x="240" y="240" width="10" height="10" as="geometry" />
        </mxCell>
        <mxCell id="3EK2jb_Yd_wLkveHqz7A-21" value="" style="ellipse;whiteSpace=wrap;html=1;aspect=fixed;fillColor=#f8cecc;strokeColor=#b85450;" vertex="1" parent="1">
          <mxGeometry x="460" y="220" width="10" height="10" as="geometry" />
        </mxCell>
        <mxCell id="3EK2jb_Yd_wLkveHqz7A-22" value="" style="ellipse;whiteSpace=wrap;html=1;aspect=fixed;" vertex="1" parent="1">
          <mxGeometry x="440" y="210" width="10" height="10" as="geometry" />
        </mxCell>
        <mxCell id="3EK2jb_Yd_wLkveHqz7A-23" value="" style="ellipse;whiteSpace=wrap;html=1;aspect=fixed;" vertex="1" parent="1">
          <mxGeometry x="450" y="230" width="10" height="10" as="geometry" />
        </mxCell>
        <mxCell id="3EK2jb_Yd_wLkveHqz7A-24" value="" style="ellipse;whiteSpace=wrap;html=1;aspect=fixed;" vertex="1" parent="1">
          <mxGeometry x="430" y="230" width="10" height="10" as="geometry" />
        </mxCell>
        <mxCell id="3EK2jb_Yd_wLkveHqz7A-25" value="" style="ellipse;whiteSpace=wrap;html=1;aspect=fixed;" vertex="1" parent="1">
          <mxGeometry x="450" y="200" width="10" height="10" as="geometry" />
        </mxCell>
        <mxCell id="3EK2jb_Yd_wLkveHqz7A-26" value="" style="ellipse;whiteSpace=wrap;html=1;aspect=fixed;" vertex="1" parent="1">
          <mxGeometry x="470" y="240" width="10" height="10" as="geometry" />
        </mxCell>
        <mxCell id="3EK2jb_Yd_wLkveHqz7A-27" value="" style="ellipse;whiteSpace=wrap;html=1;aspect=fixed;" vertex="1" parent="1">
          <mxGeometry x="450" y="250" width="10" height="10" as="geometry" />
        </mxCell>
        <mxCell id="3EK2jb_Yd_wLkveHqz7A-28" value="" style="ellipse;whiteSpace=wrap;html=1;aspect=fixed;" vertex="1" parent="1">
          <mxGeometry x="340" y="270" width="10" height="10" as="geometry" />
        </mxCell>
        <mxCell id="3EK2jb_Yd_wLkveHqz7A-29" value="" style="ellipse;whiteSpace=wrap;html=1;aspect=fixed;fillColor=#f8cecc;strokeColor=#b85450;" vertex="1" parent="1">
          <mxGeometry x="350" y="280" width="10" height="10" as="geometry" />
        </mxCell>
        <mxCell id="3EK2jb_Yd_wLkveHqz7A-30" value="" style="ellipse;whiteSpace=wrap;html=1;aspect=fixed;" vertex="1" parent="1">
          <mxGeometry x="350" y="200" width="10" height="10" as="geometry" />
        </mxCell>
        <mxCell id="3EK2jb_Yd_wLkveHqz7A-31" value="" style="ellipse;whiteSpace=wrap;html=1;aspect=fixed;" vertex="1" parent="1">
          <mxGeometry x="360" y="210" width="10" height="10" as="geometry" />
        </mxCell>
        <mxCell id="3EK2jb_Yd_wLkveHqz7A-32" value="" style="ellipse;whiteSpace=wrap;html=1;aspect=fixed;" vertex="1" parent="1">
          <mxGeometry x="360" y="190" width="10" height="10" as="geometry" />
        </mxCell>
        <mxCell id="3EK2jb_Yd_wLkveHqz7A-33" value="" style="ellipse;whiteSpace=wrap;html=1;aspect=fixed;fillColor=#f8cecc;strokeColor=#b85450;" vertex="1" parent="1">
          <mxGeometry x="340" y="180" width="10" height="10" as="geometry" />
        </mxCell>
        <mxCell id="3EK2jb_Yd_wLkveHqz7A-34" value="" style="ellipse;whiteSpace=wrap;html=1;aspect=fixed;" vertex="1" parent="1">
          <mxGeometry x="340" y="220" width="10" height="10" as="geometry" />
        </mxCell>
        <mxCell id="3EK2jb_Yd_wLkveHqz7A-35" value="" style="ellipse;whiteSpace=wrap;html=1;aspect=fixed;" vertex="1" parent="1">
          <mxGeometry x="470" y="220" width="10" height="10" as="geometry" />
        </mxCell>
        <mxCell id="3EK2jb_Yd_wLkveHqz7A-40" value="" style="ellipse;whiteSpace=wrap;html=1;aspect=fixed;" vertex="1" parent="1">
          <mxGeometry x="340" y="290" width="10" height="10" as="geometry" />
        </mxCell>
      </root>
    </mxGraphModel>
  </diagram>
</mxfile>
